<svg width="43" height="40" viewBox="0 0 43 40" fill="none" xmlns="http://www.w3.org/2000/svg">
<circle cx="21.4285" cy="10" r="9.5" stroke="#3BA9A9"/>
<path d="M42.308 39.0512C42.3301 39.2749 42.1467 39.4999 41.8571 39.4999H21.4286H0.951227C0.674779 39.4999 0.497464 39.2955 0.503368 39.0902C0.54403 37.6765 0.952986 36.2664 1.72743 34.9158C2.66153 33.2867 4.1102 31.7748 6.00503 30.4782C7.8995 29.1818 10.1936 28.1326 12.7556 27.3986C15.3171 26.6647 18.0881 26.2628 20.9045 26.2184C23.7209 26.1739 26.5207 26.488 29.1379 27.1406C31.7556 27.7933 34.1316 28.7698 36.1283 30.0069C38.1255 31.2443 39.6946 32.7121 40.7581 34.3146C41.6179 35.6101 42.1501 37.4535 42.308 39.0512Z" stroke="#3BA9A9"/>
</svg>
