<svg width="24" height="22" viewBox="0 0 24 22" fill="none" xmlns="http://www.w3.org/2000/svg">
<path d="M17.1115 5.67742C17.1115 8.52919 14.7595 10.8548 11.8409 10.8548C8.92234 10.8548 6.57031 8.52919 6.57031 5.67742C6.57031 2.82565 8.92234 0.5 11.8409 0.5C14.7595 0.5 17.1115 2.82565 17.1115 5.67742Z" stroke="#212424"/>
<path d="M23.3913 21.0729C23.4195 21.2747 23.2554 21.5 22.9602 21.5H12.4602H1.90642C1.61853 21.5 1.46624 21.2907 1.48248 21.1151C1.54714 20.416 1.75261 19.7209 2.09878 19.0503C2.58504 18.1083 3.34081 17.2308 4.33394 16.4759C5.3271 15.721 6.53286 15.1077 7.88343 14.6779C9.23369 14.2482 10.696 14.0124 12.1835 13.9863C13.6709 13.9603 15.1488 14.1446 16.529 14.5268C17.9095 14.9092 19.1592 15.4803 20.2069 16.2014C21.2547 16.9225 22.0741 17.7751 22.6281 18.7024C23.0098 19.3414 23.2733 20.2301 23.3913 21.0729Z" stroke="#212424"/>
</svg>
